<svg width="42" height="44" viewBox="0 0 97 103" fill="none" xmlns="http://www.w3.org/2000/svg">
<path fill-rule="evenodd" clip-rule="evenodd" d="M95.8777 30.114C95.6437 24.6795 94.8307 20.9682 93.6422 17.7212C92.4352 14.3144 90.5423 11.2287 88.0962 8.67814C85.6948 6.08084 82.7879 4.07015 79.5794 2.78786C76.5207 1.52661 73.0261 0.664216 67.9078 0.417262C62.78 0.167971 61.1417 0.108765 48.0834 0.108765C35.0251 0.108765 33.3868 0.167971 28.259 0.415704C23.1407 0.664216 19.6461 1.52739 16.5874 2.78942C13.3789 4.07093 10.4728 6.08084 8.07064 8.67814C5.6245 11.2279 3.73084 14.3137 2.52318 17.7204C1.33532 20.9682 0.523124 24.6795 0.290543 30.1133C0.0557608 35.5587 0 37.2975 0 51.1627C0 65.0288 0.0557608 66.7683 0.290543 72.213C0.523858 77.6468 1.33679 81.3581 2.52538 84.6059C3.7323 88.0118 5.62524 91.0984 8.07137 93.6481C10.4728 96.2454 13.3797 98.2553 16.5881 99.5368C19.6461 100.8 23.1415 101.662 28.2597 101.911C33.3882 102.159 35.0258 102.218 48.0841 102.218C61.1424 102.218 62.7808 102.159 67.9086 101.911C73.0268 101.662 76.5214 100.8 79.5802 99.5368C86.0389 96.885 91.1447 91.4637 93.6422 84.6059C94.8315 81.3581 95.6437 77.6468 95.8777 72.213C96.111 66.7676 96.1668 65.0288 96.1668 51.1635C96.1668 37.2975 96.111 35.5587 95.8777 30.114ZM87.2223 71.7947C87.0088 76.7727 86.2253 79.476 85.5671 81.2747C83.9493 85.7277 80.6352 89.2466 76.4414 90.9644C74.7473 91.6632 72.2014 92.4952 67.5131 92.7219C62.444 92.968 60.9231 93.0195 48.0834 93.0195C35.243 93.0195 33.7228 92.968 28.653 92.7219C23.9654 92.4952 21.4195 91.6632 19.7246 90.9644C17.6365 90.1456 15.7473 88.8407 14.1963 87.1448C12.599 85.4979 11.3701 83.4926 10.599 81.2747C9.94083 79.476 9.15724 76.7727 8.94374 71.7947C8.71262 66.4116 8.66346 64.7966 8.66346 51.1643C8.66346 37.5312 8.71262 35.9171 8.94374 30.5332C9.15798 25.5551 9.94083 22.8519 10.599 21.0531C11.3701 18.8352 12.5997 16.8292 14.1963 15.1823C15.7473 13.4863 17.6365 12.1815 19.7254 11.3635C21.4195 10.6639 23.9654 9.83266 28.6537 9.60519C33.7235 9.35979 35.2445 9.3076 48.0834 9.3076C60.9217 9.3076 62.4426 9.3598 67.5131 9.60597C72.2014 9.83266 74.7466 10.6647 76.4414 11.3635C78.5295 12.1822 80.4188 13.4871 81.9698 15.1823C83.5671 16.8292 84.796 18.8352 85.5664 21.0531C86.2253 22.8519 87.0088 25.5551 87.2223 30.5332C87.4535 35.9163 87.5026 37.5312 87.5026 51.1635C87.5026 64.7966 87.4542 66.4108 87.2223 71.7947ZM48.0827 24.946C34.4462 24.946 23.3916 36.6845 23.3916 51.1636C23.3916 65.6427 34.4462 77.3804 48.0827 77.3804C61.7198 77.3804 72.7744 65.6427 72.7744 51.1636C72.7744 36.6845 61.7198 24.946 48.0827 24.946ZM48.0827 68.1816C39.2314 68.1808 32.0551 60.5619 32.0558 51.1628C32.0558 41.7645 39.2314 34.1448 48.0834 34.1448C56.9354 34.1456 64.111 41.7645 64.111 51.1628C64.111 60.5619 56.9347 68.1816 48.0827 68.1816ZM73.7502 30.0369C76.9366 30.0369 79.52 27.294 79.52 23.9106C79.52 20.5265 76.9366 17.7835 73.7502 17.7835C70.563 17.7835 67.9797 20.5265 67.9797 23.9106C67.9797 27.294 70.563 30.0369 73.7502 30.0369Z" fill="url(#paint0_linear_238_1761)"/>
<defs>
<linearGradient id="paint0_linear_238_1761" x1="0" y1="51.1631" x2="96.1668" y2="51.1631" gradientUnits="userSpaceOnUse">
<stop stop-color="#02B3B1"/>
<stop offset="1" stop-color="#F66AC4"/>
</linearGradient>
</defs>
</svg>
