<svg width="50" height="38" viewBox="0 0 50 38" fill="none" xmlns="http://www.w3.org/2000/svg">
<path fill-rule="evenodd" clip-rule="evenodd" d="M47.3564 2.91312C48.129 3.75139 48.6857 4.7946 48.9712 5.9389C50 10.181 50 19.0223 50 19.0223C50 19.0223 50 27.819 48.9712 32.0611C48.6857 33.2054 48.129 34.2486 47.3564 35.0869C46.5839 35.9251 45.6225 36.5292 44.5679 36.839C40.6584 38 25.0206 38 25.0206 38C25.0206 38 9.38272 38 5.47325 36.839C4.41867 36.5292 3.45726 35.9251 2.68472 35.0869C1.91217 34.2486 1.35545 33.2054 1.06996 32.0611C0 27.819 0 19.0223 0 19.0223C0 19.0223 0 10.181 1.06996 5.9389C1.35545 4.7946 1.91217 3.75139 2.68472 2.91312C3.45726 2.07485 4.41867 1.47076 5.47325 1.16099C9.38272 0 25.0206 0 25.0206 0C25.0206 0 40.6584 0 44.5679 1.16099C45.6225 1.47076 46.5839 2.07485 47.3564 2.91312ZM33.0044 18.9777L20.0003 27.1046V10.8508L33.0044 18.9777Z" fill="#F0EEEC"/>
</svg>
