<svg width="42" height="44" viewBox="0 0 105 82" fill="none" xmlns="http://www.w3.org/2000/svg">
<path fill-rule="evenodd" clip-rule="evenodd" d="M99.4625 7.09503C101.081 8.86992 102.247 11.0787 102.845 13.5016C105 22.4834 105 41.2035 105 41.2035C105 41.2035 105 59.829 102.845 68.8109C102.247 71.2337 101.081 73.4425 99.4625 75.2174C97.8443 76.9923 95.8304 78.2714 93.6214 78.9273C85.4322 81.3855 52.6757 81.3855 52.6757 81.3855C52.6757 81.3855 19.9191 81.3855 11.7299 78.9273C9.52092 78.2714 7.50704 76.9923 5.8888 75.2174C4.27056 73.4425 3.10439 71.2337 2.50637 68.8109C0.265137 59.829 0.265137 41.2035 0.265137 41.2035C0.265137 41.2035 0.265137 22.4834 2.50637 13.5016C3.10439 11.0787 4.27056 8.86992 5.8888 7.09503C7.50704 5.32015 9.52092 4.04109 11.7299 3.38519C19.9191 0.927002 52.6757 0.927002 52.6757 0.927002C52.6757 0.927002 85.4322 0.927002 93.6214 3.38519C95.8304 4.04109 97.8443 5.32015 99.4625 7.09503ZM69.3994 41.1091L42.1597 58.3164V23.9017L69.3994 41.1091Z" fill="url(#paint0_linear_238_1778)"/>
<defs>
<linearGradient id="paint0_linear_238_1778" x1="0.265137" y1="41.1562" x2="105" y2="41.1562" gradientUnits="userSpaceOnUse">
<stop stop-color="#02B3B1"/>
<stop offset="1" stop-color="#F66AC4"/>
</linearGradient>
</defs>
</svg>
