<svg width="42" height="44" viewBox="0 0 41 42" fill="none" xmlns="http://www.w3.org/2000/svg">
<path fill-rule="evenodd" clip-rule="evenodd" d="M20.5 0C31.8218 0 41 9.45947 41 21.1283C41 31.6741 33.5034 40.415 23.7031 42V27.2357H28.4798L29.3887 21.1283H29.29L29.2997 21.0631H23.7031V17.165C23.7031 15.4941 24.4973 13.8655 27.0439 13.8655H29.6289V8.66592C29.6289 8.66592 29.5982 8.66051 29.5404 8.65094V8.55347C29.5404 8.55347 27.1898 8.13924 24.9425 8.13924C20.2507 8.13924 17.1842 11.0753 17.1842 16.3907V21.0631H11.969V27.1937H12.0918V27.2357H17.1842V41.9814C7.43917 40.3479 0 31.6337 0 21.1283C0 9.45947 9.17815 0 20.5 0Z" fill="#F0EEEC"/>
</svg>
