<svg width="42" height="44" viewBox="0 0 92 101" fill="none" xmlns="http://www.w3.org/2000/svg">
<path fill-rule="evenodd" clip-rule="evenodd" d="M46.0786 0.840759C71.3149 0.840759 91.7728 23.2711 91.7728 50.9405C91.7728 75.9467 75.0631 96.6731 53.2183 100.432V65.4224H63.8654L65.8913 50.9405H65.6714L65.693 50.7859H53.2183V41.5426C53.2183 37.5806 54.9885 33.7187 60.6649 33.7187H66.4268V21.3895C66.4268 21.3895 66.3583 21.3766 66.2295 21.354V21.1228C66.2295 21.1228 60.9901 20.1406 55.981 20.1406C45.523 20.1406 38.6878 27.1026 38.6878 39.7064V50.7859H27.0631V65.3227H27.3368V65.4224H38.6878V100.388C16.9662 96.5141 0.384399 75.8508 0.384399 50.9405C0.384399 23.2711 20.8424 0.840759 46.0786 0.840759Z" fill="url(#paint0_linear_238_1771)"/>
<defs>
<linearGradient id="paint0_linear_238_1771" x1="0.384399" y1="50.6361" x2="91.7728" y2="50.6361" gradientUnits="userSpaceOnUse">
<stop stop-color="#02B3B1"/>
<stop offset="1" stop-color="#F66AC4"/>
</linearGradient>
</defs>
</svg>
