<svg width="42" height="44" viewBox="0 0 42 44" fill="none" xmlns="http://www.w3.org/2000/svg">
<path fill-rule="evenodd" clip-rule="evenodd" d="M41.8737 12.9297C41.7715 10.5878 41.4165 8.98859 40.8974 7.58941C40.3703 6.12142 39.5435 4.79172 38.4752 3.69266C37.4264 2.57344 36.1569 1.70701 34.7556 1.15446C33.4197 0.610967 31.8935 0.239351 29.6581 0.132936C27.4186 0.0255129 26.7031 0 21 0C15.2969 0 14.5814 0.0255129 12.3419 0.132264C10.1065 0.239351 8.58028 0.611302 7.24438 1.15513C5.84312 1.70735 4.57388 2.57344 3.52478 3.69266C2.45645 4.79139 1.62941 6.12108 1.10197 7.58908C0.583191 8.98859 0.22847 10.5878 0.126892 12.9293C0.024353 15.2758 0 16.0251 0 21.9998C0 27.9749 0.024353 28.7245 0.126892 31.0707C0.22879 33.4122 0.583832 35.0114 1.10294 36.4109C1.63005 37.8786 2.45677 39.2086 3.5251 40.3073C4.57388 41.4266 5.84344 42.2927 7.24471 42.8449C8.58028 43.389 10.1068 43.7607 12.3422 43.8677C14.582 43.9748 15.2972 44 21.0003 44C26.7034 44 27.4189 43.9748 29.6585 43.8677C31.8938 43.7607 33.42 43.389 34.7559 42.8449C37.5767 41.7022 39.8066 39.3661 40.8974 36.4109C41.4168 35.0114 41.7715 33.4122 41.8737 31.0707C41.9756 28.7242 42 27.9749 42 22.0002C42 16.0251 41.9756 15.2758 41.8737 12.9297ZM38.0936 30.8904C38.0003 33.0355 37.6581 34.2004 37.3707 34.9755C36.6641 36.8943 35.2167 38.4107 33.3851 39.1509C32.6452 39.452 31.5333 39.8105 29.4857 39.9082C27.2719 40.0143 26.6076 40.0364 21 40.0364C15.3921 40.0364 14.7281 40.0143 12.5139 39.9082C10.4667 39.8105 9.35477 39.452 8.61456 39.1509C7.70261 38.7981 6.87749 38.2358 6.20009 37.505C5.5025 36.7953 4.96577 35.9312 4.629 34.9755C4.34157 34.2004 3.99934 33.0355 3.9061 30.8904C3.80516 28.5707 3.78369 27.8748 3.78369 22.0005C3.78369 16.1258 3.80516 15.4303 3.9061 13.1103C3.99966 10.9652 4.34157 9.80031 4.629 9.02518C4.96577 8.06946 5.50282 7.20504 6.20009 6.49538C6.87749 5.76457 7.70261 5.20228 8.61488 4.8498C9.35477 4.54834 10.4667 4.19016 12.5143 4.09213C14.7285 3.98639 15.3927 3.9639 21 3.9639C26.607 3.9639 27.2713 3.98639 29.4857 4.09247C31.5333 4.19016 32.6449 4.54868 33.3851 4.8498C34.2971 5.20262 35.1222 5.76491 35.7996 6.49538C36.4972 7.20504 37.0339 8.06946 37.3704 9.02518C37.6581 9.80031 38.0003 10.9652 38.0936 13.1103C38.1945 15.4299 38.216 16.1258 38.216 22.0002C38.216 27.8748 38.1948 28.5704 38.0936 30.8904ZM20.9997 10.7027C15.0441 10.7027 10.2161 15.761 10.2161 22.0002C10.2161 28.2394 15.0441 33.2974 20.9997 33.2974C26.9556 33.2974 31.7836 28.2394 31.7836 22.0002C31.7836 15.761 26.9556 10.7027 20.9997 10.7027ZM20.9997 29.3335C17.134 29.3331 13.9998 26.05 14.0001 21.9999C14.0001 17.95 17.134 14.6666 21 14.6666C24.866 14.6669 27.9999 17.95 27.9999 21.9999C27.9999 26.05 24.8657 29.3335 20.9997 29.3335ZM32.2097 12.8964C33.6014 12.8964 34.7296 11.7145 34.7296 10.2565C34.7296 8.79827 33.6014 7.61629 32.2097 7.61629C30.8178 7.61629 29.6895 8.79827 29.6895 10.2565C29.6895 11.7145 30.8178 12.8964 32.2097 12.8964Z" fill="#F0EEEC"/>
</svg>
