<svg width="196" height="81" viewBox="0 0 196 81" fill="none" xmlns="http://www.w3.org/2000/svg">
<path d="M0 2H187V26H0V2Z" fill="url(#paint0_linear_238_2280)"/>
<rect y="29" width="94" height="24" fill="url(#paint1_linear_238_2280)"/>
<rect y="56" width="152" height="25" fill="url(#paint2_linear_238_2280)"/>
<path d="M17.8 22.33C15.6147 22.33 13.752 21.5893 12.212 20.108C10.6867 18.6267 9.924 16.6613 9.924 14.212C9.924 11.7773 10.7013 9.812 12.256 8.316C13.8107 6.82 15.6513 6.072 17.778 6.072C19.6553 6.072 21.1953 6.54867 22.398 7.502C23.6153 8.45533 24.4147 9.66533 24.796 11.132L22.31 11.968C22.0607 10.956 21.5547 10.1347 20.792 9.504C20.0293 8.87333 19.0247 8.558 17.778 8.558C16.3847 8.558 15.1747 9.05667 14.148 10.054C13.136 11.0367 12.63 12.4227 12.63 14.212C12.63 15.9573 13.136 17.3287 14.148 18.326C15.16 19.3087 16.3773 19.8 17.8 19.8C19.0173 19.8 20.022 19.47 20.814 18.81C21.606 18.15 22.1487 17.336 22.442 16.368L24.862 17.16C24.4807 18.612 23.674 19.8367 22.442 20.834C21.2247 21.8313 19.6773 22.33 17.8 22.33ZM32.21 10.054C31.1833 11.0367 30.67 12.4153 30.67 14.19C30.67 15.9647 31.1833 17.3507 32.21 18.348C33.2367 19.3307 34.4613 19.822 35.884 19.822C37.3067 19.822 38.5313 19.3307 39.558 18.348C40.5993 17.3507 41.12 15.9647 41.12 14.19C41.12 12.4153 40.5993 11.0367 39.558 10.054C38.5313 9.05667 37.3067 8.558 35.884 8.558C34.4613 8.558 33.2367 9.05667 32.21 10.054ZM29.086 18.546C28.338 17.2847 27.964 15.8327 27.964 14.19C27.964 12.5473 28.338 11.1027 29.086 9.856C29.8487 8.59467 30.824 7.64867 32.012 7.018C33.2 6.38733 34.4907 6.072 35.884 6.072C37.2773 6.072 38.568 6.38733 39.756 7.018C40.944 7.64867 41.9193 8.59467 42.682 9.856C43.4447 11.1027 43.826 12.5473 43.826 14.19C43.826 15.8327 43.4447 17.2847 42.682 18.546C41.9193 19.8073 40.944 20.7533 39.756 21.384C38.568 22.0147 37.2773 22.33 35.884 22.33C34.4907 22.33 33.2 22.0147 32.012 21.384C30.824 20.7533 29.8487 19.8073 29.086 18.546ZM50.7931 13.574H53.5431C54.3791 13.574 55.0318 13.3613 55.5011 12.936C55.9851 12.496 56.2271 11.9093 56.2271 11.176C56.2271 10.428 55.9851 9.834 55.5011 9.394C55.0318 8.954 54.3791 8.734 53.5431 8.734H50.7931V13.574ZM53.9391 15.906H50.7931V22H48.1531V6.402H53.9391C55.4205 6.402 56.6158 6.84933 57.5251 7.744C58.4491 8.63867 58.9111 9.77533 58.9111 11.154C58.9111 12.5473 58.4491 13.6913 57.5251 14.586C56.6158 15.466 55.4205 15.906 53.9391 15.906ZM72.5205 22H62.8845V6.402H72.5205V8.866H65.5245V13.002H71.8605V15.4H65.5245V19.536H72.5205V22ZM90.3192 22H87.5692L79.8692 10.186V22H77.2292V6.402H80.5952L87.6792 17.468V6.402H90.3192V22ZM108.219 22H105.557V15.334H98.2315V22H95.5915V6.402H98.2315V12.848H105.557V6.402H108.219V22ZM124.173 22L122.699 18.084H116.099L114.647 22H111.853L117.925 6.402H120.983L127.055 22H124.173ZM119.399 9.262L117.023 15.642H121.775L119.399 9.262ZM143.855 22H141.721L141.523 20.02C141.142 20.6653 140.541 21.2153 139.719 21.67C138.898 22.11 137.908 22.33 136.749 22.33C134.623 22.33 132.811 21.5967 131.315 20.13C129.819 18.6487 129.071 16.6687 129.071 14.19C129.071 12.5473 129.445 11.0953 130.193 9.834C130.956 8.57267 131.924 7.634 133.097 7.018C134.271 6.38733 135.547 6.072 136.925 6.072C138.729 6.072 140.24 6.51933 141.457 7.414C142.689 8.30867 143.525 9.44533 143.965 10.824L141.479 11.77C141.201 10.8313 140.665 10.054 139.873 9.438C139.081 8.822 138.099 8.514 136.925 8.514C135.532 8.514 134.322 9.00533 133.295 9.988C132.269 10.9707 131.755 12.3713 131.755 14.19C131.755 15.994 132.254 17.402 133.251 18.414C134.249 19.4113 135.466 19.91 136.903 19.91C138.311 19.91 139.382 19.5433 140.115 18.81C140.863 18.062 141.281 17.2627 141.369 16.412H136.221V14.102H143.855V22ZM158.23 22H148.594V6.402H158.23V8.866H151.234V13.002H157.57V15.4H151.234V19.536H158.23V22ZM176.029 22H173.279L165.579 10.186V22H162.939V6.402H166.305L173.389 17.468V6.402H176.029V22Z" fill="white"/>
<path d="M21.19 49H10.955V32.693H13.715V46.378H21.19V49ZM28.1288 49H25.3228V32.693H28.1288V49ZM48.1156 49H45.8846L45.6776 46.93C45.279 47.6047 44.6503 48.1797 43.7916 48.655C42.933 49.115 41.898 49.345 40.6866 49.345C38.4633 49.345 36.5696 48.5783 35.0056 47.045C33.4416 45.4963 32.6596 43.4263 32.6596 40.835C32.6596 39.1177 33.0506 37.5997 33.8326 36.281C34.63 34.9623 35.642 33.981 36.8686 33.337C38.0953 32.6777 39.4293 32.348 40.8706 32.348C42.7566 32.348 44.336 32.8157 45.6086 33.751C46.8966 34.6863 47.7706 35.8747 48.2306 37.316L45.6316 38.305C45.3403 37.3237 44.7806 36.511 43.9526 35.867C43.1246 35.223 42.0973 34.901 40.8706 34.901C39.414 34.901 38.149 35.4147 37.0756 36.442C36.0023 37.4693 35.4656 38.9337 35.4656 40.835C35.4656 42.721 35.987 44.193 37.0296 45.251C38.0723 46.2937 39.345 46.815 40.8476 46.815C42.3196 46.815 43.439 46.4317 44.2056 45.665C44.9876 44.883 45.4246 44.0473 45.5166 43.158H40.1346V40.743H48.1156V49ZM66.2722 49H63.4892V42.031H55.8302V49H53.0702V32.693H55.8302V39.432H63.4892V32.693H66.2722V49ZM83.5024 35.292H78.1894V49H75.4294V35.292H70.1394V32.693H83.5024V35.292Z" fill="white"/>
<path d="M13.92 77H11.04V59.984H21.624V62.696H13.92V67.472H20.832V70.136H13.92V77ZM38.0314 77H27.5194V59.984H38.0314V62.672H30.3994V67.184H37.3114V69.8H30.3994V74.312H38.0314V77ZM55.7921 63.968L53.2001 64.784C53.0881 64.128 52.7601 63.528 52.2161 62.984C51.6721 62.44 50.8881 62.168 49.8641 62.168C49.0161 62.168 48.3121 62.408 47.7521 62.888C47.2081 63.368 46.9361 63.944 46.9361 64.616C46.9361 65.784 47.6001 66.512 48.9281 66.8L51.3761 67.304C52.8481 67.592 53.9841 68.176 54.7841 69.056C55.5841 69.936 55.9841 70.984 55.9841 72.2C55.9841 73.608 55.4401 74.824 54.3521 75.848C53.2801 76.856 51.8161 77.36 49.9601 77.36C47.9601 77.36 46.4001 76.84 45.2801 75.8C44.1601 74.744 43.5281 73.52 43.3841 72.128L46.0721 71.36C46.1681 72.32 46.5521 73.128 47.2241 73.784C47.8961 74.44 48.8081 74.768 49.9601 74.768C50.9521 74.768 51.7121 74.552 52.2401 74.12C52.7841 73.672 53.0561 73.104 53.0561 72.416C53.0561 71.856 52.8561 71.376 52.4561 70.976C52.0561 70.56 51.4961 70.272 50.7761 70.112L48.3761 69.608C47.0481 69.336 45.9921 68.784 45.2081 67.952C44.4401 67.12 44.0561 66.08 44.0561 64.832C44.0561 63.408 44.6241 62.184 45.7601 61.16C46.8961 60.136 48.2561 59.624 49.8401 59.624C51.6481 59.624 53.0321 60.064 53.9921 60.944C54.9521 61.808 55.5521 62.816 55.7921 63.968ZM74.241 62.696H68.697V77H65.817V62.696H60.297V59.984H74.241V62.696ZM82.6511 77H79.7231V59.984H82.6511V77ZM95.9229 73.232L100.699 59.984H103.747L97.3149 77H94.3869L88.0509 59.984H91.1709L95.9229 73.232ZM119.4 77L117.792 72.728H110.592L109.008 77H105.96L112.584 59.984H115.92L122.544 77H119.4ZM114.192 63.104L111.6 70.064H116.784L114.192 63.104ZM138.622 77H127.942V59.984H130.822V74.264H138.622V77Z" fill="white"/>
<defs>
<linearGradient id="paint0_linear_238_2280" x1="-6.75206e-08" y1="58" x2="187" y2="58" gradientUnits="userSpaceOnUse">
<stop stop-color="#FE373B"/>
<stop offset="0.201199" stop-color="#EA415D"/>
<stop offset="0.499915" stop-color="#C94B93"/>
<stop offset="0.772913" stop-color="#A857C9"/>
<stop offset="1" stop-color="#8A61F7"/>
</linearGradient>
<linearGradient id="paint1_linear_238_2280" x1="0" y1="41" x2="94" y2="41" gradientUnits="userSpaceOnUse">
<stop stop-color="#8861FA"/>
<stop offset="0.242841" stop-color="#636FE9"/>
<stop offset="0.498645" stop-color="#3E7CDA"/>
<stop offset="0.778061" stop-color="#1D87C9"/>
<stop offset="1" stop-color="#0885B3"/>
</linearGradient>
<linearGradient id="paint2_linear_238_2280" x1="0" y1="68.5" x2="152" y2="68.5" gradientUnits="userSpaceOnUse">
<stop stop-color="#068EC2"/>
<stop offset="0.225" stop-color="#068EC2"/>
<stop offset="0.773221" stop-color="#01A7BB"/>
<stop offset="1" stop-color="#00BAB5"/>
</linearGradient>
</defs>
</svg>
